<?xml version="1.0" encoding="UTF-8"?>
<svg version="1.1" xmlns="http://www.w3.org/2000/svg" width="32" height="32">
<path d="M0 0 C10.56 0 21.12 0 32 0 C32 10.56 32 21.12 32 32 C21.44 32 10.88 32 0 32 C0 21.44 0 10.88 0 0 Z " fill="#FDFEFE" transform="translate(0,0)"/>
<path d="M0 0 C2.75 0.8125 2.75 0.8125 5 2 C5 2.99 5 3.98 5 5 C5.33 5.99 5.66 6.98 6 8 C6 9.66666667 6 11.33333333 6 13 C3 15 3 15 0.4375 14.6875 C-2 14 -2 14 -4 13 C-3.835 12.401875 -3.67 11.80375 -3.5 11.1875 C-2.77498866 8.01557539 -2.96694502 6.09916494 -4 3 C-2.3125 1.375 -2.3125 1.375 0 0 Z " fill="#4C99AA" transform="translate(14,8)"/>
<path d="M0 0 C2.75 0.8125 2.75 0.8125 5 2 C5 2.99 5 3.98 5 5 C4 6 4 6 1.0625 6.25 C0.051875 6.1675 -0.95875 6.085 -2 6 C-2.66 5.01 -3.32 4.02 -4 3 C-2.3125 1.375 -2.3125 1.375 0 0 Z " fill="#54EBF2" transform="translate(14,8)"/>
<path d="M0 0 C2.05078125 0.03255208 4.1015625 0.06510417 6.15234375 0.09765625 C6.15234375 1.08765625 6.15234375 2.07765625 6.15234375 3.09765625 C4.50234375 3.75765625 2.85234375 4.41765625 1.15234375 5.09765625 C-0.16765625 3.77765625 -1.48765625 2.45765625 -2.84765625 1.09765625 C-1.84765625 0.09765625 -1.84765625 0.09765625 0 0 Z " fill="#206E85" transform="translate(12.84765625,13.90234375)"/>
<path d="M0 0 C1.65 0.33 3.3 0.66 5 1 C4.01 2.485 4.01 2.485 3 4 C0.375 4.1875 0.375 4.1875 -2 4 C-1.34 2.68 -0.68 1.36 0 0 Z " fill="#32D9EF" transform="translate(15,10)"/>
</svg>
